<?xml version="1.0" ?><svg xmlns="http://www.w3.org/2000/svg" xmlns:xlink="http://www.w3.org/1999/xlink" version="1.1" id="Layer_1" x="0px" y="0px" width="100%" viewBox="0 0 1354 536" enable-background="new 0 0 1354 536" xml:space="preserve">
<path fill="#FFFFFF" opacity="1.000000" stroke="none" d=" M869.000000,537.000000   C579.371521,537.000000 290.243103,537.000000 1.057317,537.000000   C1.057317,358.395172 1.057317,179.790314 1.057317,1.092732   C452.211853,1.092732 903.423767,1.092732 1354.817871,1.092732   C1354.817871,179.666519 1354.817871,358.333252 1354.817871,537.000000   C1193.123535,537.000000 1031.311768,537.000000 869.000000,537.000000  M1275.671753,124.350777   C1275.671753,134.090378 1275.671753,143.829987 1275.671753,153.754807   C1278.166016,153.754807 1280.524902,153.754807 1282.853271,153.754807   C1282.853271,143.724258 1282.853271,134.011414 1282.853271,124.261879   C1280.553711,124.030106 1278.465210,123.819595 1275.729370,123.044785   C1275.605103,120.948654 1275.480957,118.852524 1275.354858,116.725220   C1270.213379,116.725220 1265.501099,116.725220 1260.622925,116.725220   C1260.622925,129.279312 1260.622925,141.497086 1260.622925,153.924377   C1263.102173,153.924377 1265.353271,153.924377 1268.119751,153.924377   C1268.119751,143.973816 1268.119751,134.119263 1268.119751,124.379555   C1271.218750,124.062759 1273.800903,123.798790 1275.671753,124.350777  M136.478912,387.313538   C136.478912,389.583344 136.478912,391.853149 136.478912,394.185242   C181.205048,394.185242 225.278061,394.185242 269.825073,394.185242   C269.825073,386.772522 269.825073,379.682617 269.825073,372.136963   C277.367981,372.136963 284.450775,372.136963 291.695557,372.136963   C291.695557,342.422852 291.695557,313.184265 291.695557,283.468811   C284.377258,283.468811 277.288727,283.468811 270.127197,283.468811   C270.127197,275.797791 270.127197,268.610199 270.127197,260.933350   C277.601105,260.933350 284.669800,260.933350 291.665344,260.933350   C291.665344,238.671478 291.665344,216.912048 291.665344,194.725616   C284.307831,194.725616 277.209503,194.725616 269.672455,194.725616   C269.672455,187.216583 269.672455,180.125443 269.672455,172.762299   C225.147766,172.762299 181.079453,172.762299 136.479034,172.762299   C136.479034,244.123062 136.479034,315.238953 136.478912,387.313538  M990.071411,245.500000   C990.071411,295.077637 990.071411,344.655273 990.071411,394.312195   C1034.733765,394.312195 1078.684692,394.312195 1123.242676,394.312195   C1123.242676,386.924713 1123.242676,379.702850 1123.242676,372.069397   C1130.942017,372.069397 1138.041260,372.069397 1145.310059,372.069397   C1145.310059,312.880920 1145.310059,254.123337 1145.310059,194.759125   C1137.926392,194.759125 1130.704468,194.759125 1123.070923,194.759125   C1123.070923,187.060654 1123.070923,179.961487 1123.070923,172.804779   C1078.579590,172.804779 1034.519531,172.804779 990.071411,172.804779   C990.071411,196.899170 990.071411,220.699585 990.071411,245.500000  M388.834412,241.499954   C388.834412,284.936493 388.834412,328.373047 388.834412,372.273193   C396.429535,372.273193 403.506012,372.273193 411.135742,372.273193   C411.135742,379.937622 411.135742,387.149689 411.135742,394.216736   C448.306488,394.216736 484.909454,394.216736 522.125854,394.216736   C522.125854,386.743622 522.125854,379.526001 522.125854,371.883789   C529.804932,371.883789 536.873291,371.883789 543.740112,371.883789   C543.740112,305.177643 543.740112,238.931274 543.740112,172.827255   C528.993103,172.827255 514.578857,172.827255 499.610046,172.827255   C499.610046,224.685028 499.610046,276.228333 499.610046,328.137207   C491.933167,328.137207 484.813568,328.137207 477.304718,328.137207   C477.304718,335.611023 477.304718,342.717255 477.304718,349.755310   C469.810791,349.755310 462.727875,349.755310 455.184998,349.755310   C455.184998,342.379059 455.184998,335.307251 455.184998,327.826202   C447.637695,327.826202 440.549072,327.826202 432.970825,327.826202   C432.970825,275.829773 432.970825,224.260605 432.970825,172.804337   C418.041290,172.804337 403.619690,172.804337 388.834412,172.804337   C388.834412,195.564331 388.834412,218.032135 388.834412,241.499954  M360.088715,99.714081   C360.626343,95.266335 357.444641,96.044785 354.879608,96.044548   C269.894135,96.036789 184.908676,96.036789 99.923210,96.049484   C98.468658,96.049698 97.014137,96.219604 95.390030,96.320908   C95.390030,118.330933 95.390030,140.034027 95.390030,161.822784   C183.679871,161.822784 271.581146,161.822784 360.090485,161.822784   C360.090485,141.227707 360.090485,120.948364 360.088715,99.714081  M857.500000,350.063324   C847.388123,350.063324 837.276245,350.063324 826.685669,350.063324   C826.685669,290.651520 826.685669,231.764786 826.685669,172.875946   C811.634094,172.875946 797.073975,172.875946 782.589355,172.875946   C782.589355,246.866150 782.589355,320.455597 782.589355,394.168121   C819.604553,394.168121 856.314514,394.168121 893.104248,394.168121   C893.104248,379.358185 893.104248,364.905487 893.104248,350.063324   C881.429688,350.063324 869.964844,350.063324 857.500000,350.063324  M641.000549,309.500000   C641.000549,337.770599 641.000549,366.041168 641.000549,394.187988   C656.039246,394.187988 670.466125,394.187988 684.932190,394.187988   C684.932190,320.165680 684.932190,246.445450 684.932190,172.794006   C670.152039,172.794006 655.737488,172.794006 641.000549,172.794006   C641.000549,218.217789 641.000549,263.358887 641.000549,309.500000  M1182.167725,115.303978   C1179.091675,115.835892 1175.868042,115.949944 1172.965698,116.974236   C1162.127197,120.799561 1156.237915,133.043091 1159.627808,144.138580   C1162.970947,155.081009 1174.288452,161.656357 1185.391602,159.106949   C1196.064331,156.656403 1203.228882,147.562210 1202.962769,136.803177   C1202.692993,125.896820 1194.988281,117.696541 1182.167725,115.303978  M672.285156,431.910614   C660.600769,431.910614 648.916321,431.910614 637.295898,431.910614   C637.295898,435.047791 637.295898,437.294128 637.295898,439.683716   C650.288391,439.683716 662.942505,439.683716 676.022644,439.683716   C675.161377,436.743561 678.433533,432.980255 672.285156,431.910614  M1230.428711,131.505951   C1230.428711,138.933044 1230.428711,146.360123 1230.428711,153.909546   C1233.169922,153.909546 1235.417358,153.909546 1237.724609,153.909546   C1237.724609,141.378448 1237.724609,129.052902 1237.724609,116.791664   C1235.187622,116.791664 1232.969238,116.791664 1230.428711,116.791664   C1230.428711,121.603737 1230.428711,126.056602 1230.428711,131.505951  M782.091370,133.371902   C781.676147,135.993149 781.260925,138.614380 780.732605,141.949646   C790.589722,141.949646 799.494751,141.852020 808.395630,142.001831   C811.574036,142.055328 812.845703,141.011993 812.870483,137.739258   C812.895752,134.400879 811.917480,132.944962 808.327820,133.035614   C799.877197,133.248962 791.418274,133.134109 782.091370,133.371902  M596.109863,431.969879   C591.536194,431.969879 586.962524,431.969879 582.333130,431.969879   C582.130859,427.795929 581.973816,424.555115 581.815796,421.294861   C579.020386,421.294861 576.768677,421.294861 574.349365,421.294861   C574.349365,427.615204 574.349365,433.634430 574.349365,439.680237   C582.298218,439.680237 589.846130,439.680237 598.164978,439.680237   C597.722778,436.890594 597.352661,434.555542 596.109863,431.969879  M723.465820,431.904938   C720.868408,431.904938 718.270996,431.904938 715.539551,431.904938   C715.539551,434.958496 715.539551,437.315918 715.539551,439.678833   C723.507751,439.678833 731.053894,439.678833 738.600220,439.678833   C738.600220,433.286957 738.600220,427.270325 738.600220,421.337463   C735.897949,421.337463 733.645630,421.337463 731.147949,421.337463   C730.974487,424.895142 730.816650,428.132019 730.632751,431.904785   C728.315247,431.904785 726.368469,431.904785 723.465820,431.904938  M863.473755,141.950699   C866.891113,141.950699 870.308472,141.950699 873.679993,141.950699   C873.679993,138.594986 873.679993,136.054306 873.679993,133.417267   C863.372070,133.417267 853.496216,133.417267 843.375854,133.417267   C843.375854,136.286545 843.375854,138.833755 843.375854,141.950607   C849.953796,141.950607 856.217102,141.950607 863.473755,141.950699  M917.999573,152.710159   C920.233948,152.710159 922.468384,152.710159 924.667603,152.710159   C924.667603,145.839615 924.667603,139.753906 924.667603,133.393127   C918.123657,133.393127 911.900513,133.393127 905.364929,133.393127   C905.364929,136.239212 905.364929,138.790192 905.364929,141.645798   C909.015625,141.864059 912.400269,142.066422 915.464600,142.249634   C916.108765,145.985458 916.658691,149.174774 917.999573,152.710159  M99.012482,314.508728   C99.012482,320.107697 99.012482,325.706696 99.012482,331.175537   C107.400459,332.682861 107.851173,332.339996 107.855164,325.039764   C107.858261,319.383759 107.857826,313.727753 107.855255,308.071747   C107.851898,300.684570 106.660202,299.847015 99.012505,302.187073   C99.012505,305.892365 99.012505,309.703247 99.012482,314.508728  M407.301270,133.092926   C401.500977,133.092911 395.700714,133.090286 389.900421,133.093552   C382.636383,133.097656 381.732452,134.418976 384.010681,141.491760   C393.890808,141.491760 403.721283,141.491760 413.485229,141.491760   C414.328796,133.410019 414.235870,133.270523 407.301270,133.092926  M924.988098,308.596558   C924.988098,306.324219 924.988098,304.051849 924.988098,301.911346   C916.657837,300.345581 916.148499,300.730438 916.144775,308.005066   C916.141846,313.662872 916.141846,319.320648 916.144714,324.978455   C916.148438,332.386353 917.309387,333.205017 924.988098,330.874786   C924.988098,323.845978 924.988098,316.707336 924.988098,308.596558  M340.359131,331.846619   C341.223938,330.588409 342.795929,329.352814 342.837006,328.068298   C343.075378,320.607300 342.803894,313.130524 343.018311,305.668091   C343.122070,302.056519 341.621460,301.125824 338.302704,301.121796   C334.936646,301.117737 334.031097,302.567749 334.094849,305.663696   C334.238342,312.631409 334.348633,319.612823 334.060852,326.571594   C333.887878,330.755035 335.382812,332.438080 340.359131,331.846619  M503.362396,141.058731   C513.148682,141.058731 522.934937,141.058731 533.090820,141.058731   C532.978394,138.526260 532.865234,135.978577 532.753479,133.460480   C522.606201,133.460480 513.062378,133.460480 503.118927,133.460480   C503.118927,135.944977 503.118927,138.070099 503.362396,141.058731  M454.521637,141.950699   C460.591492,141.950699 466.661316,141.950699 472.688629,141.950699   C472.688629,138.605270 472.688629,136.066742 472.688629,133.419632   C462.738037,133.419632 453.211182,133.419632 443.414856,133.419632   C443.414856,136.286407 443.414856,138.829575 443.414856,141.950607   C446.986938,141.950607 450.258942,141.950607 454.521637,141.950699  M924.988098,266.352478   C924.988098,258.429047 924.988098,250.505600 924.988098,242.285828   C921.876038,242.285828 919.326477,242.285828 916.529297,242.285828   C916.529297,252.228394 916.529297,261.899719 916.529297,271.777283   C919.351135,271.777283 921.787903,271.777283 924.639526,271.777283   C924.764587,270.172638 924.876221,268.740662 924.988098,266.352478  M342.950684,254.510849   C342.950684,250.441574 342.950684,246.372299 342.950684,242.422516   C339.583496,242.422516 337.042908,242.422516 334.482086,242.422516   C334.482086,252.399918 334.482086,261.931305 334.482086,271.640991   C337.365295,271.640991 339.906830,271.640991 342.950592,271.640991   C342.950592,266.037994 342.950592,260.772552 342.950684,254.510849  M99.012482,259.489136   C99.012482,263.556885 99.012482,267.624634 99.012482,271.533875   C102.435814,271.533875 104.973953,271.533875 107.501205,271.533875   C107.501205,261.535675 107.501205,251.994263 107.501205,242.329651   C104.587265,242.329651 102.038490,242.329651 99.012505,242.329651   C99.012505,247.945419 99.012505,253.219131 99.012482,259.489136  M342.901611,362.964111   C339.719421,360.057434 334.453033,360.297058 334.339264,363.455200   C334.012787,372.517029 334.224243,381.598267 334.224243,390.641052   C337.481812,390.641052 340.029510,390.641052 342.945984,390.641052   C342.945984,381.438202 342.945984,372.654419 342.901611,362.964111  M107.608841,389.993256   C107.691154,382.679108 107.808655,375.365112 107.846001,368.050720   C107.884346,360.539368 106.925568,359.865204 99.359024,361.915039   C99.359024,371.464447 99.359024,381.026062 99.359024,391.112762   C102.162148,390.957764 104.597939,390.823090 107.608841,389.993256  M924.988098,189.589539   C924.988098,187.189545 924.988098,184.789551 924.988098,181.884811   C921.383179,182.960846 916.749023,179.809860 916.379822,184.776611   C915.720215,193.649887 916.194153,202.607437 916.194153,211.722336   C919.375793,211.722336 921.924561,211.722336 924.988098,211.722336   C924.988098,204.448929 924.988098,197.506302 924.988098,189.589539  M924.749023,390.070679   C924.749023,380.512146 924.749023,370.953644 924.749023,359.586578   C921.101013,361.356506 916.623291,362.400574 916.525757,363.759277   C915.887451,372.643677 916.197266,381.596191 916.197266,390.753143   C919.254272,390.753143 921.695557,390.753143 924.749023,390.070679  M342.954468,207.313385   C342.954468,199.069397 342.954468,190.825409 342.954468,180.773529   C339.196686,182.382599 334.632355,183.307449 334.548615,184.537415   C333.934296,193.559296 334.217102,202.642273 334.217102,212.456924   C337.712402,210.741943 342.815399,215.293732 342.954468,207.313385  M107.855698,206.339508   C107.855721,200.519562 107.858650,194.699631 107.855042,188.879684   C107.850510,181.563736 106.557732,180.678650 99.406082,182.984436   C99.406082,192.579926 99.406082,202.139038 99.406082,211.824524   C102.241806,211.824524 104.682800,211.824524 107.518425,211.824524   C107.640877,210.176315 107.748062,208.733719 107.855698,206.339508  M925.044373,430.170898   C925.044373,427.249695 925.044373,424.328461 925.044373,421.368683   C921.705444,421.368683 919.159668,421.368683 916.460754,421.368683   C916.460754,427.642944 916.460754,433.532288 916.460754,439.619080   C923.427185,439.619080 930.082764,439.619080 936.683655,439.619080   C936.683655,436.917511 936.683655,434.665558 936.683655,432.445709   C932.668274,431.951416 928.978943,431.497284 925.044373,430.170898  M730.896729,149.237015   C731.336670,155.693726 735.723755,151.845535 738.816467,152.661407   C738.987427,148.935043 739.136108,145.693680 739.308838,141.929794   C742.311096,141.929794 745.038818,142.356842 747.517395,141.756195   C748.828247,141.438538 750.563965,139.331146 750.562134,138.033890   C750.559937,136.400848 749.088745,133.445633 748.058167,133.359024   C742.506226,132.892380 736.894348,133.138214 730.895020,133.138214   C730.895020,138.695435 730.895020,143.496796 730.896729,149.237015  M1001.734985,432.814392   C991.069946,432.814392 980.404968,432.814392 969.612183,432.814392   C969.612183,434.985626 969.612183,437.350494 969.612183,439.613464   C980.614929,439.613464 991.177612,439.613464 1001.944275,439.613464   C1001.944275,437.357788 1001.944275,435.534271 1001.734985,432.814392  M1052.496094,440.046234   C1057.247559,440.046234 1061.998901,440.046234 1066.668945,440.046234   C1066.668945,436.930054 1066.668945,434.672607 1066.668945,432.263489   C1055.794067,432.263489 1045.254028,432.263489 1034.619141,432.263489   C1034.619141,434.994415 1034.619141,437.359955 1034.619141,440.046326   C1040.538452,440.046326 1046.018188,440.046326 1052.496094,440.046234  M1105.622314,440.046234   C1114.232422,440.046234 1122.842651,440.046234 1131.623413,440.046234   C1131.623413,437.068054 1131.623413,434.697418 1131.623413,432.317383   C1120.699219,432.317383 1110.156738,432.317383 1099.499023,432.317383   C1099.499023,434.981995 1099.499023,437.225800 1099.499023,439.812134   C1101.417114,439.899078 1103.041504,439.972687 1105.622314,440.046234  M574.012085,151.108185   C576.396667,151.850388 578.781311,152.592590 581.747681,153.515884   C581.747681,146.043030 581.747681,139.851837 581.747681,133.544617   C575.363464,133.544617 569.343384,133.544617 563.468994,133.544617   C563.468994,136.543991 563.468994,139.097198 563.468994,141.749268   C567.149353,141.910522 570.387451,142.052383 573.955078,142.208694   C573.955078,145.262268 573.955078,147.736389 574.012085,151.108185  M1179.615356,421.003998   C1174.991821,421.340393 1176.976929,424.956482 1176.977417,427.074951   C1176.978271,430.725128 1175.817261,432.295258 1172.066772,431.943756   C1169.652588,431.717499 1167.199951,431.901276 1164.572754,431.901276   C1164.572754,434.917053 1164.572754,437.280151 1164.572754,439.646301   C1171.517822,439.646301 1178.053101,439.646301 1184.671021,439.646301   C1184.671021,433.340790 1184.671021,427.442322 1184.671021,421.300232   C1183.110474,421.185181 1181.820923,421.090118 1179.615356,421.003998  M342.932495,425.685974   C342.824982,424.249054 342.717468,422.812164 342.612640,421.411530   C339.640869,421.411530 337.097961,421.411530 334.392578,421.411530   C334.209015,425.042877 334.045624,428.275177 333.874634,431.657288   C330.288300,431.854126 327.238251,432.021545 324.303284,432.182648   C324.303284,435.073547 324.303284,437.322571 324.303284,439.748535   C330.548157,439.748535 336.439392,439.748535 342.932465,439.748535   C342.932465,435.190277 342.932465,430.916290 342.932495,425.685974  M105.589561,440.049896   C109.536797,440.049896 113.484039,440.049896 117.649055,440.049896   C117.649055,437.100769 117.649055,434.729858 117.649055,432.151062   C114.256310,431.952057 111.203392,431.773010 108.085037,431.590088   C107.876640,427.771637 107.699753,424.530396 107.530769,421.434021   C104.426018,421.434021 101.874321,421.434021 99.386520,421.434021   C99.386520,427.783691 99.386520,433.687378 99.386520,440.049988   C101.363380,440.049988 102.994675,440.049988 105.589561,440.049896  M575.694580,301.928619   C575.152649,302.454102 574.143738,302.974731 574.138123,303.505829   C574.041870,312.741455 574.068726,321.978363 574.068726,331.431366   C576.932434,331.431366 579.292358,331.431366 581.769043,331.431366   C581.769043,321.501007 581.769043,311.965576 581.769043,301.865692   C579.837524,301.865692 578.226807,301.865692 575.694580,301.928619  M281.492188,431.901642   C276.091522,431.901642 270.690826,431.901642 265.378113,431.901642   C265.378113,435.069183 265.378113,437.319214 265.378113,439.684448   C275.261078,439.684448 284.793243,439.684448 294.371765,439.684448   C294.371765,436.951508 294.371765,434.591827 294.371765,431.901459   C290.106934,431.901459 286.297241,431.901459 281.492188,431.901642  M208.799057,431.913025   C203.569153,433.462860 206.898178,436.980469 206.591202,439.569092   C216.539215,439.569092 226.076889,439.569092 235.492889,439.569092   C235.492889,436.830383 235.492889,434.588135 235.492889,431.903198   C226.656799,431.903198 218.200287,431.903198 208.799057,431.913025  M164.489716,440.049896   C168.561371,440.049896 172.633011,440.049896 176.625122,440.049896   C176.625122,436.909515 176.625122,434.656525 176.625122,432.271820   C166.747711,432.271820 157.218369,432.271820 147.621246,432.271820   C147.621246,435.010651 147.621246,437.371948 147.621246,440.050018   C153.210754,440.050018 158.352005,440.050018 164.489716,440.049896  M582.041626,210.178772   C582.041626,200.966873 582.041626,191.754974 582.041626,182.429062   C579.041382,182.429062 576.802307,182.429062 574.354004,182.429062   C574.354004,192.386978 574.354004,202.038956 574.354004,212.445618   C577.186951,211.931641 579.513855,211.509460 582.041626,210.178772  M1178.745117,361.183014   C1178.115845,362.167206 1176.956055,363.142853 1176.940186,364.136871   C1176.797852,373.006256 1176.857300,381.878876 1176.857300,390.707489   C1179.988403,390.707489 1182.229980,390.707489 1184.527832,390.707489   C1184.527832,380.709015 1184.527832,371.057007 1184.527832,361.130737   C1182.601807,361.130737 1181.120117,361.130737 1178.745117,361.183014  M730.906433,208.287079   C731.281433,215.203827 735.794800,211.041870 738.683533,211.748642   C738.683533,201.666595 738.683533,192.140244 738.683533,182.566010   C735.952942,182.566010 733.592285,182.566010 730.904968,182.566010   C730.904968,191.113220 730.904968,199.223740 730.906433,208.287079  M730.905029,371.529175   C730.905029,377.920074 730.905029,384.310974 730.905029,390.750061   C733.973083,390.750061 736.218384,390.750061 738.636230,390.750061   C738.636230,380.810272 738.636230,371.167847 738.636230,361.440186   C735.977783,361.440186 733.738831,361.440186 730.904846,361.440186   C730.904846,364.678070 730.904846,367.611053 730.905029,371.529175  M582.094971,384.403778   C582.094971,376.833984 582.094971,369.264221 582.094971,361.526093   C579.074341,361.526093 576.717346,361.526093 574.273376,361.526093   C574.273376,371.458374 574.273376,380.987579 574.273376,390.649963   C576.961975,390.649963 579.322754,390.649963 582.095154,390.649963   C582.095154,388.628876 582.095154,386.999573 582.094971,384.403778  M1176.847900,195.507523   C1176.847900,200.898499 1176.847900,206.289474 1176.847900,211.749207   C1179.918823,211.749207 1182.157959,211.749207 1184.580566,211.749207   C1184.580566,201.805420 1184.580566,192.163681 1184.580566,182.438156   C1181.947876,182.438156 1179.709717,182.438156 1176.847656,182.438156   C1176.847656,186.664536 1176.847656,190.588196 1176.847900,195.507523  M581.163879,271.696198   C581.594055,261.911346 582.024292,252.126465 582.455627,242.315369   C578.984985,242.315369 576.730896,242.315369 574.387573,242.315369   C574.387573,252.317032 574.387573,261.997772 574.387573,271.907257   C576.638611,271.907257 578.456360,271.907257 581.163879,271.696198  M730.905029,250.552979   C730.905029,257.610229 730.905029,264.667511 730.905029,271.609283   C734.090027,271.609283 736.337708,271.609283 738.764893,271.609283   C738.764893,261.699432 738.764893,252.147079 738.764893,242.352585   C736.111633,242.352585 733.743652,242.352585 730.904846,242.352585   C730.904846,244.992462 730.904846,247.283737 730.905029,250.552979  M1176.908325,303.783844   C1176.908325,312.984528 1176.908325,322.185181 1176.908325,331.515991   C1179.923828,331.515991 1182.157837,331.515991 1184.577148,331.515991   C1184.577148,321.544495 1184.577148,311.889374 1184.577148,301.432281   C1181.767578,301.973236 1179.444336,302.420563 1176.908325,303.783844  M730.905029,312.524231   C730.905029,318.766052 730.905029,325.007904 730.905029,331.418213   C733.932556,331.418213 736.291077,331.418213 738.723816,331.418213   C738.723816,321.477417 738.723816,311.944977 738.723816,302.265747   C736.040588,302.265747 733.687378,302.265747 730.904846,302.265747   C730.904846,305.627289 730.904846,308.581940 730.905029,312.524231  M1176.850830,253.517960   C1176.850830,259.573151 1176.850830,265.628326 1176.850830,271.614685   C1180.009521,271.614685 1182.249512,271.614685 1184.533447,271.614685   C1184.533447,261.598785 1184.533447,251.938156 1184.533447,242.344727   C1181.846802,242.344727 1179.598877,242.344727 1176.850586,242.344727   C1176.850586,245.964157 1176.850586,249.244659 1176.850830,253.517960  z" stroke-dasharray="1000" stroke-dashoffset="1000" style="animation: draw 2s linear forwards;"/>
<path fill="#252223" opacity="1.000000" stroke="none" d=" M136.478973,386.834198   C136.479034,315.238953 136.479034,244.123062 136.479034,172.762299   C181.079453,172.762299 225.147766,172.762299 269.672455,172.762299   C269.672455,180.125443 269.672455,187.216583 269.672455,194.725616   C277.209503,194.725616 284.307831,194.725616 291.665344,194.725616   C291.665344,216.912048 291.665344,238.671478 291.665344,260.933350   C284.669800,260.933350 277.601105,260.933350 270.127197,260.933350   C270.127197,268.610199 270.127197,275.797791 270.127197,283.468811   C277.288727,283.468811 284.377258,283.468811 291.695557,283.468811   C291.695557,313.184265 291.695557,342.422852 291.695557,372.136963   C284.450775,372.136963 277.367981,372.136963 269.825073,372.136963   C269.825073,379.682617 269.825073,386.772522 269.825073,394.185242   C225.278061,394.185242 181.205048,394.185242 136.478912,394.185242   C136.478912,391.853149 136.478912,389.583344 136.478973,386.834198  M180.932297,324.500488   C180.932297,332.926239 180.932297,341.351959 180.932297,349.815216   C203.376465,349.815216 225.269272,349.815216 247.284790,349.815216   C247.284790,335.154419 247.284790,320.747498 247.284790,306.200562   C225.089249,306.200562 203.095093,306.200562 180.932297,306.200562   C180.932297,312.208832 180.932297,317.854889 180.932297,324.500488  M246.488083,261.078918   C246.760193,260.887268 247.270050,260.696228 247.270538,260.503906   C247.307602,246.100159 247.304428,231.696289 247.304428,217.176010   C225.055054,217.176010 203.174988,217.176010 181.272614,217.176010   C181.272614,231.951294 181.272614,246.479538 181.272614,261.152557   C202.903320,261.152557 224.194077,261.152557 246.488083,261.078918  z" stroke-dasharray="1000" stroke-dashoffset="1000" style="animation: draw 2s linear forwards;"/>
<path fill="#221F20" opacity="1.000000" stroke="none" d=" M990.071411,245.000000   C990.071411,220.699585 990.071411,196.899170 990.071411,172.804779   C1034.519531,172.804779 1078.579590,172.804779 1123.070923,172.804779   C1123.070923,179.961487 1123.070923,187.060654 1123.070923,194.759125   C1130.704468,194.759125 1137.926392,194.759125 1145.310059,194.759125   C1145.310059,254.123337 1145.310059,312.880920 1145.310059,372.069397   C1138.041260,372.069397 1130.942017,372.069397 1123.242676,372.069397   C1123.242676,379.702850 1123.242676,386.924713 1123.242676,394.312195   C1078.684692,394.312195 1034.733765,394.312195 990.071411,394.312195   C990.071411,344.655273 990.071411,295.077637 990.071411,245.000000  M1056.500000,350.076294   C1063.913696,350.076294 1071.327515,350.076294 1079.133545,350.076294   C1079.133545,342.304413 1079.133545,335.227112 1079.133545,327.767639   C1086.623291,327.767639 1093.706055,327.767639 1100.729004,327.767639   C1100.729004,298.003601 1100.729004,268.643250 1100.729004,238.872818   C1093.311768,238.872818 1086.235474,238.872818 1078.773926,238.872818   C1078.773926,231.383423 1078.773926,224.301773 1078.773926,217.279358   C1063.837158,217.279358 1049.305542,217.279358 1034.769775,217.279358   C1034.769775,261.689819 1034.769775,305.743988 1034.769775,350.076294   C1041.869141,350.076294 1048.684692,350.076294 1056.500000,350.076294  z" stroke-dasharray="1000" stroke-dashoffset="1000" style="animation: draw 2s linear forwards;"/>
<path fill="#221F20" opacity="1.000000" stroke="none" d=" M388.834412,240.999939   C388.834412,218.032135 388.834412,195.564331 388.834412,172.804337   C403.619690,172.804337 418.041290,172.804337 432.970825,172.804337   C432.970825,224.260605 432.970825,275.829773 432.970825,327.826202   C440.549072,327.826202 447.637695,327.826202 455.184998,327.826202   C455.184998,335.307251 455.184998,342.379059 455.184998,349.755310   C462.727875,349.755310 469.810791,349.755310 477.304718,349.755310   C477.304718,342.717255 477.304718,335.611023 477.304718,328.137207   C484.813568,328.137207 491.933167,328.137207 499.610046,328.137207   C499.610046,276.228333 499.610046,224.685028 499.610046,172.827255   C514.578857,172.827255 528.993103,172.827255 543.740112,172.827255   C543.740112,238.931274 543.740112,305.177643 543.740112,371.883789   C536.873291,371.883789 529.804932,371.883789 522.125854,371.883789   C522.125854,379.526001 522.125854,386.743622 522.125854,394.216736   C484.909454,394.216736 448.306488,394.216736 411.135742,394.216736   C411.135742,387.149689 411.135742,379.937622 411.135742,372.273193   C403.506012,372.273193 396.429535,372.273193 388.834412,372.273193   C388.834412,328.373047 388.834412,284.936493 388.834412,240.999939  z" stroke-dasharray="1000" stroke-dashoffset="1000" style="animation: draw 2s linear forwards;"/>
<path fill="#EDF077" opacity="1.000000" stroke="none" d=" M360.089600,100.191551   C360.090485,120.948364 360.090485,141.227707 360.090485,161.822784   C271.581146,161.822784 183.679871,161.822784 95.390030,161.822784   C95.390030,140.034027 95.390030,118.330933 95.390030,96.320908   C97.014137,96.219604 98.468658,96.049698 99.923210,96.049484   C184.908676,96.036789 269.894135,96.036789 354.879608,96.044548   C357.444641,96.044785 360.626343,95.266335 360.089600,100.191551  M322.000305,131.918823   C322.000305,136.485641 322.000305,141.052475 322.000305,145.599579   C324.773682,145.599579 326.973267,145.599579 329.460236,145.599579   C329.460236,140.517883 329.460236,135.759277 330.411163,130.872620   C332.509521,130.872620 334.607910,130.872620 336.746765,130.872620   C336.746765,122.944275 336.746765,115.693909 336.746765,108.383118   C334.263153,108.383118 332.051666,108.383118 329.571838,108.383118   C329.571838,116.158005 329.571838,123.617897 328.611267,130.880676   C326.367310,130.951416 324.123322,131.022171 321.986450,130.149384   C321.986450,122.884842 321.986450,115.620300 321.986450,108.411423   C318.998840,108.411423 316.615692,108.411423 314.294434,108.411423   C314.294434,116.009857 314.294434,123.257263 314.294434,130.990143   C317.052917,130.990143 319.516052,130.990143 322.000305,131.918823  M171.842667,109.881409   C171.377045,109.300880 170.919083,108.221916 170.444672,108.214638   C163.383469,108.106354 156.320068,108.139839 149.320282,108.139839   C149.320282,121.047813 149.320282,133.275162 149.320282,145.562042   C156.947067,145.562042 164.292114,145.562042 171.865356,145.562042   C171.865356,133.719131 171.865356,122.268600 171.842667,109.881409  M134.181473,131.545380   C134.181473,128.922089 134.181473,126.298790 134.181473,123.144760   C128.976959,123.144760 124.234047,123.144760 119.316490,123.144760   C119.316490,120.532837 119.316490,118.458580 119.316490,115.847229   C124.268013,115.847229 129.012314,115.847229 133.946594,115.847229   C133.946594,113.056770 133.946594,110.804329 133.946594,108.332581   C126.493355,108.332581 119.275192,108.332581 111.886574,108.332581   C111.886574,115.882019 111.886574,123.150055 111.886574,130.969620   C116.875053,130.969620 121.619415,130.969620 126.304901,130.969620   C126.304901,133.612564 126.304901,135.698746 126.304901,138.234192   C121.409088,138.234192 116.812469,138.234192 112.039307,138.234192   C112.039307,141.052872 112.039307,143.407486 112.039307,145.676392   C119.557640,145.676392 126.661789,145.676392 134.181519,145.676392   C134.181519,141.120255 134.181519,136.825943 134.181473,131.545380  M252.549057,115.868690   C255.506851,115.868690 258.464661,115.868690 261.572021,115.868690   C261.572021,113.002686 261.572021,110.648880 261.572021,108.385132   C253.942154,108.385132 246.700470,108.385132 239.416931,108.385132   C239.416931,120.975784 239.416931,133.223358 239.416931,145.711700   C246.945923,145.711700 254.189774,145.711700 261.694672,145.711700   C261.694672,143.253250 261.694672,141.018188 261.694672,138.211121   C256.770233,138.211121 252.031067,138.211121 247.337646,138.211121   C247.337646,135.416962 247.337646,133.216660 247.337646,131.057999   C249.812210,130.886215 251.904114,130.740982 254.077133,130.590134   C254.077133,127.954498 254.077133,125.697655 254.077133,123.307007   C251.658707,123.181343 249.544983,123.071503 247.201309,122.949715   C247.201309,120.652657 247.201309,118.562141 247.201309,116.133896   C248.697464,116.043526 250.144791,115.956100 252.549057,115.868690  M284.246613,137.427002   C284.246613,140.183868 284.246613,142.940720 284.246613,145.649734   C287.214111,145.649734 289.459045,145.649734 292.121643,145.649734   C292.121643,135.617630 292.121643,125.882645 292.121643,116.109825   C294.782135,115.910172 297.015503,115.742569 299.269897,115.573395   C299.269897,112.884674 299.269897,110.642372 299.269897,108.320648   C291.717102,108.320648 284.489136,108.320648 277.135284,108.320648   C277.135284,110.851112 277.135284,113.103455 277.135284,115.589500   C279.556580,115.806114 281.773041,116.004402 284.246735,116.225700   C284.246735,123.197304 284.246735,129.820740 284.246613,137.427002  M186.820755,110.691284   C186.820755,122.290131 186.820755,133.888977 186.820755,145.666077   C192.087250,145.666077 196.815399,145.666077 201.648209,145.666077   C201.648209,143.150940 201.648209,140.920273 201.648209,138.499344   C199.115585,138.310806 196.862198,138.143051 194.408630,137.960388   C194.408630,130.579163 194.408630,123.495163 194.408630,116.159538   C196.988831,115.939545 199.372894,115.736267 201.593674,115.546913   C201.593674,112.832367 201.593674,110.591156 201.593674,108.054527   C197.436844,108.054527 193.624146,107.939201 189.826996,108.131226   C188.809341,108.182693 187.839081,109.171402 186.820755,110.691284  M216.837448,138.430664   C216.837448,140.849457 216.837448,143.268265 216.837448,145.650726   C219.665955,145.650726 221.752045,145.650726 223.894684,145.650726   C223.894684,133.022812 223.894684,120.675758 223.894684,108.345909   C221.412918,108.345909 219.328674,108.345909 216.837418,108.345909   C216.837418,118.225830 216.837418,127.837692 216.837448,138.430664  z" stroke-dasharray="1000" stroke-dashoffset="1000" style="animation: draw 2s linear forwards;"/>
<path fill="#262324" opacity="1.000000" stroke="none" d=" M858.000000,350.063324   C869.964844,350.063324 881.429688,350.063324 893.104248,350.063324   C893.104248,364.905487 893.104248,379.358185 893.104248,394.168121   C856.314514,394.168121 819.604553,394.168121 782.589355,394.168121   C782.589355,320.455597 782.589355,246.866150 782.589355,172.875946   C797.073975,172.875946 811.634094,172.875946 826.685669,172.875946   C826.685669,231.764786 826.685669,290.651520 826.685669,350.063324   C837.276245,350.063324 847.388123,350.063324 858.000000,350.063324  z" stroke-dasharray="1000" stroke-dashoffset="1000" style="animation: draw 2s linear forwards;"/>
<path fill="#221F20" opacity="1.000000" stroke="none" d=" M641.000549,309.000000   C641.000549,263.358887 641.000549,218.217789 641.000549,172.794006   C655.737488,172.794006 670.152039,172.794006 684.932190,172.794006   C684.932190,246.445450 684.932190,320.165680 684.932190,394.187988   C670.466125,394.187988 656.039246,394.187988 641.000549,394.187988   C641.000549,366.041168 641.000549,337.770599 641.000549,309.000000  z" stroke-dasharray="1000" stroke-dashoffset="1000" style="animation: draw 2s linear forwards;"/>
<path fill="#EEF179" opacity="1.000000" stroke="none" d=" M1182.565186,115.410370   C1194.988281,117.696541 1202.692993,125.896820 1202.962769,136.803177   C1203.228882,147.562210 1196.064331,156.656403 1185.391602,159.106949   C1174.288452,161.656357 1162.970947,155.081009 1159.627808,144.138580   C1156.237915,133.043091 1162.127197,120.799561 1172.965698,116.974236   C1175.868042,115.949944 1179.091675,115.835892 1182.565186,115.410370  z" stroke-dasharray="1000" stroke-dashoffset="1000" style="animation: draw 2s linear forwards;"/>
<path fill="#1C1C1C" opacity="1.000000" stroke="none" d=" M1276.383057,123.534821   C1273.800903,123.798790 1271.218750,124.062759 1268.119751,124.379555   C1268.119751,134.119263 1268.119751,143.973816 1268.119751,153.924377   C1265.353271,153.924377 1263.102173,153.924377 1260.622925,153.924377   C1260.622925,141.497086 1260.622925,129.279312 1260.622925,116.725220   C1265.501099,116.725220 1270.213379,116.725220 1275.354858,116.725220   C1275.480957,118.852524 1275.605103,120.948654 1276.016479,123.305252   C1276.303589,123.565712 1276.383057,123.534821 1276.383057,123.534821  z" stroke-dasharray="1000" stroke-dashoffset="1000" style="animation: draw 2s linear forwards;"/>
<path fill="#EDF077" opacity="1.000000" stroke="none" d=" M672.758667,431.914459   C678.433533,432.980255 675.161377,436.743561 676.022644,439.683716   C662.942505,439.683716 650.288391,439.683716 637.295898,439.683716   C637.295898,437.294128 637.295898,435.047791 637.295898,431.910614   C648.916321,431.910614 660.600769,431.910614 672.758667,431.914459  z" stroke-dasharray="1000" stroke-dashoffset="1000" style="animation: draw 2s linear forwards;"/>
<path fill="#131313" opacity="1.000000" stroke="none" d=" M1230.428711,131.007721   C1230.428711,126.056602 1230.428711,121.603737 1230.428711,116.791664   C1232.969238,116.791664 1235.187622,116.791664 1237.724609,116.791664   C1237.724609,129.052902 1237.724609,141.378448 1237.724609,153.909546   C1235.417358,153.909546 1233.169922,153.909546 1230.428711,153.909546   C1230.428711,146.360123 1230.428711,138.933044 1230.428711,131.007721  z" stroke-dasharray="1000" stroke-dashoffset="1000" style="animation: draw 2s linear forwards;"/>
<path fill="#EFF281" opacity="1.000000" stroke="none" d=" M782.527039,133.261963   C791.418274,133.134109 799.877197,133.248962 808.327820,133.035614   C811.917480,132.944962 812.895752,134.400879 812.870483,137.739258   C812.845703,141.011993 811.574036,142.055328 808.395630,142.001831   C799.494751,141.852020 790.589722,141.949646 780.732605,141.949646   C781.260925,138.614380 781.676147,135.993149 782.527039,133.261963  z" stroke-dasharray="1000" stroke-dashoffset="1000" style="animation: draw 2s linear forwards;"/>
<path fill="#EEF179" opacity="1.000000" stroke="none" d=" M596.546204,432.095184   C597.352661,434.555542 597.722778,436.890594 598.164978,439.680237   C589.846130,439.680237 582.298218,439.680237 574.349365,439.680237   C574.349365,433.634430 574.349365,427.615204 574.349365,421.294861   C576.768677,421.294861 579.020386,421.294861 581.815796,421.294861   C581.973816,424.555115 582.130859,427.795929 582.333130,431.969879   C586.962524,431.969879 591.536194,431.969879 596.546204,432.095184  z" stroke-dasharray="1000" stroke-dashoffset="1000" style="animation: draw 2s linear forwards;"/>
<path fill="#EEF179" opacity="1.000000" stroke="none" d=" M723.943726,431.904846   C726.368469,431.904785 728.315247,431.904785 730.632751,431.904785   C730.816650,428.132019 730.974487,424.895142 731.147949,421.337463   C733.645630,421.337463 735.897949,421.337463 738.600220,421.337463   C738.600220,427.270325 738.600220,433.286957 738.600220,439.678833   C731.053894,439.678833 723.507751,439.678833 715.539551,439.678833   C715.539551,437.315918 715.539551,434.958496 715.539551,431.904938   C718.270996,431.904938 720.868408,431.904938 723.943726,431.904846  z" stroke-dasharray="1000" stroke-dashoffset="1000" style="animation: draw 2s linear forwards;"/>
<path fill="#EFF281" opacity="1.000000" stroke="none" d=" M862.977051,141.950653   C856.217102,141.950607 849.953796,141.950607 843.375854,141.950607   C843.375854,138.833755 843.375854,136.286545 843.375854,133.417267   C853.496216,133.417267 863.372070,133.417267 873.679993,133.417267   C873.679993,136.054306 873.679993,138.594986 873.679993,141.950699   C870.308472,141.950699 866.891113,141.950699 862.977051,141.950653  z" stroke-dasharray="1000" stroke-dashoffset="1000" style="animation: draw 2s linear forwards;"/>
<path fill="#EFF281" opacity="1.000000" stroke="none" d=" M917.604126,152.537125   C916.658691,149.174774 916.108765,145.985458 915.464600,142.249634   C912.400269,142.066422 909.015625,141.864059 905.364929,141.645798   C905.364929,138.790192 905.364929,136.239212 905.364929,133.393127   C911.900513,133.393127 918.123657,133.393127 924.667603,133.393127   C924.667603,139.753906 924.667603,145.839615 924.667603,152.710159   C922.468384,152.710159 920.233948,152.710159 917.604126,152.537125  z" stroke-dasharray="1000" stroke-dashoffset="1000" style="animation: draw 2s linear forwards;"/>
<path fill="#EFF281" opacity="1.000000" stroke="none" d=" M99.012497,314.011414   C99.012505,309.703247 99.012505,305.892365 99.012505,302.187073   C106.660202,299.847015 107.851898,300.684570 107.855255,308.071747   C107.857826,313.727753 107.858261,319.383759 107.855164,325.039764   C107.851173,332.339996 107.400459,332.682861 99.012482,331.175537   C99.012482,325.706696 99.012482,320.107697 99.012497,314.011414  z" stroke-dasharray="1000" stroke-dashoffset="1000" style="animation: draw 2s linear forwards;"/>
<path fill="#EFF282" opacity="1.000000" stroke="none" d=" M407.773712,133.093018   C414.235870,133.270523 414.328796,133.410019 413.485229,141.491760   C403.721283,141.491760 393.890808,141.491760 384.010681,141.491760   C381.732452,134.418976 382.636383,133.097656 389.900421,133.093552   C395.700714,133.090286 401.500977,133.092911 407.773712,133.093018  z" stroke-dasharray="1000" stroke-dashoffset="1000" style="animation: draw 2s linear forwards;"/>
<path fill="#EFF281" opacity="1.000000" stroke="none" d=" M924.988098,309.082642   C924.988098,316.707336 924.988098,323.845978 924.988098,330.874786   C917.309387,333.205017 916.148438,332.386353 916.144714,324.978455   C916.141846,319.320648 916.141846,313.662872 916.144775,308.005066   C916.148499,300.730438 916.657837,300.345581 924.988098,301.911346   C924.988098,304.051849 924.988098,306.324219 924.988098,309.082642  z" stroke-dasharray="1000" stroke-dashoffset="1000" style="animation: draw 2s linear forwards;"/>
<path fill="#EFF282" opacity="1.000000" stroke="none" d=" M339.919067,331.852478   C335.382812,332.438080 333.887878,330.755035 334.060852,326.571594   C334.348633,319.612823 334.238342,312.631409 334.094849,305.663696   C334.031097,302.567749 334.936646,301.117737 338.302704,301.121796   C341.621460,301.125824 343.122070,302.056519 343.018311,305.668091   C342.803894,313.130524 343.075378,320.607300 342.837006,328.068298   C342.795929,329.352814 341.223938,330.588409 339.919067,331.852478  z" stroke-dasharray="1000" stroke-dashoffset="1000" style="animation: draw 2s linear forwards;"/>
<path fill="#EFF281" opacity="1.000000" stroke="none" d=" M503.240662,140.626984   C503.118927,138.070099 503.118927,135.944977 503.118927,133.460480   C513.062378,133.460480 522.606201,133.460480 532.753479,133.460480   C532.865234,135.978577 532.978394,138.526260 533.090820,141.058731   C522.934937,141.058731 513.148682,141.058731 503.240662,140.626984  z" stroke-dasharray="1000" stroke-dashoffset="1000" style="animation: draw 2s linear forwards;"/>
<path fill="#EFF281" opacity="1.000000" stroke="none" d=" M454.026306,141.950653   C450.258942,141.950607 446.986938,141.950607 443.414856,141.950607   C443.414856,138.829575 443.414856,136.286407 443.414856,133.419632   C453.211182,133.419632 462.738037,133.419632 472.688629,133.419632   C472.688629,136.066742 472.688629,138.605270 472.688629,141.950699   C466.661316,141.950699 460.591492,141.950699 454.026306,141.950653  z" stroke-dasharray="1000" stroke-dashoffset="1000" style="animation: draw 2s linear forwards;"/>
<path fill="#EFF281" opacity="1.000000" stroke="none" d=" M924.987915,266.830566   C924.876221,268.740662 924.764587,270.172638 924.639526,271.777283   C921.787903,271.777283 919.351135,271.777283 916.529297,271.777283   C916.529297,261.899719 916.529297,252.228394 916.529297,242.285828   C919.326477,242.285828 921.876038,242.285828 924.988098,242.285828   C924.988098,250.505600 924.988098,258.429047 924.987915,266.830566  z" stroke-dasharray="1000" stroke-dashoffset="1000" style="animation: draw 2s linear forwards;"/>
<path fill="#EFF281" opacity="1.000000" stroke="none" d=" M342.950623,255.008972   C342.950592,260.772552 342.950592,266.037994 342.950592,271.640991   C339.906830,271.640991 337.365295,271.640991 334.482086,271.640991   C334.482086,261.931305 334.482086,252.399918 334.482086,242.422516   C337.042908,242.422516 339.583496,242.422516 342.950684,242.422516   C342.950684,246.372299 342.950684,250.441574 342.950623,255.008972  z" stroke-dasharray="1000" stroke-dashoffset="1000" style="animation: draw 2s linear forwards;"/>
<path fill="#EFF281" opacity="1.000000" stroke="none" d=" M99.012497,258.990967   C99.012505,253.219131 99.012505,247.945419 99.012505,242.329651   C102.038490,242.329651 104.587265,242.329651 107.501205,242.329651   C107.501205,251.994263 107.501205,261.535675 107.501205,271.533875   C104.973953,271.533875 102.435814,271.533875 99.012482,271.533875   C99.012482,267.624634 99.012482,263.556885 99.012497,258.990967  z" stroke-dasharray="1000" stroke-dashoffset="1000" style="animation: draw 2s linear forwards;"/>
<path fill="#EFF282" opacity="1.000000" stroke="none" d=" M342.923798,363.417358   C342.945984,372.654419 342.945984,381.438202 342.945984,390.641052   C340.029510,390.641052 337.481812,390.641052 334.224243,390.641052   C334.224243,381.598267 334.012787,372.517029 334.339264,363.455200   C334.453033,360.297058 339.719421,360.057434 342.923798,363.417358  z" stroke-dasharray="1000" stroke-dashoffset="1000" style="animation: draw 2s linear forwards;"/>
<path fill="#EFF281" opacity="1.000000" stroke="none" d=" M107.321281,390.340820   C104.597939,390.823090 102.162148,390.957764 99.359024,391.112762   C99.359024,381.026062 99.359024,371.464447 99.359024,361.915039   C106.925568,359.865204 107.884346,360.539368 107.846001,368.050720   C107.808655,375.365112 107.691154,382.679108 107.321281,390.340820  z" stroke-dasharray="1000" stroke-dashoffset="1000" style="animation: draw 2s linear forwards;"/>
<path fill="#EFF281" opacity="1.000000" stroke="none" d=" M924.988098,190.076614   C924.988098,197.506302 924.988098,204.448929 924.988098,211.722336   C921.924561,211.722336 919.375793,211.722336 916.194153,211.722336   C916.194153,202.607437 915.720215,193.649887 916.379822,184.776611   C916.749023,179.809860 921.383179,182.960846 924.988098,181.884811   C924.988098,184.789551 924.988098,187.189545 924.988098,190.076614  z" stroke-dasharray="1000" stroke-dashoffset="1000" style="animation: draw 2s linear forwards;"/>
<path fill="#EFF281" opacity="1.000000" stroke="none" d=" M924.442932,390.411926   C921.695557,390.753143 919.254272,390.753143 916.197266,390.753143   C916.197266,381.596191 915.887451,372.643677 916.525757,363.759277   C916.623291,362.400574 921.101013,361.356506 924.749023,359.586578   C924.749023,370.953644 924.749023,380.512146 924.442932,390.411926  z" stroke-dasharray="1000" stroke-dashoffset="1000" style="animation: draw 2s linear forwards;"/>
<path fill="#EFF282" opacity="1.000000" stroke="none" d=" M342.953918,207.786591   C342.815399,215.293732 337.712402,210.741943 334.217102,212.456924   C334.217102,202.642273 333.934296,193.559296 334.548615,184.537415   C334.632355,183.307449 339.196686,182.382599 342.954468,180.773529   C342.954468,190.825409 342.954468,199.069397 342.953918,207.786591  z" stroke-dasharray="1000" stroke-dashoffset="1000" style="animation: draw 2s linear forwards;"/>
<path fill="#EFF281" opacity="1.000000" stroke="none" d=" M107.855469,206.815323   C107.748062,208.733719 107.640877,210.176315 107.518425,211.824524   C104.682800,211.824524 102.241806,211.824524 99.406082,211.824524   C99.406082,202.139038 99.406082,192.579926 99.406082,182.984436   C106.557732,180.678650 107.850510,181.563736 107.855042,188.879684   C107.858650,194.699631 107.855721,200.519562 107.855469,206.815323  z" stroke-dasharray="1000" stroke-dashoffset="1000" style="animation: draw 2s linear forwards;"/>
<path fill="#EFF27E" opacity="1.000000" stroke="none" d=" M925.166992,430.607025   C928.978943,431.497284 932.668274,431.951416 936.683655,432.445709   C936.683655,434.665558 936.683655,436.917511 936.683655,439.619080   C930.082764,439.619080 923.427185,439.619080 916.460754,439.619080   C916.460754,433.532288 916.460754,427.642944 916.460754,421.368683   C919.159668,421.368683 921.705444,421.368683 925.044373,421.368683   C925.044373,424.328461 925.044373,427.249695 925.166992,430.607025  z" stroke-dasharray="1000" stroke-dashoffset="1000" style="animation: draw 2s linear forwards;"/>
<path fill="#EFF27E" opacity="1.000000" stroke="none" d=" M730.895874,148.767593   C730.895020,143.496796 730.895020,138.695435 730.895020,133.138214   C736.894348,133.138214 742.506226,132.892380 748.058167,133.359024   C749.088745,133.445633 750.559937,136.400848 750.562134,138.033890   C750.563965,139.331146 748.828247,141.438538 747.517395,141.756195   C745.038818,142.356842 742.311096,141.929794 739.308838,141.929794   C739.136108,145.693680 738.987427,148.935043 738.816467,152.661407   C735.723755,151.845535 731.336670,155.693726 730.895874,148.767593  z" stroke-dasharray="1000" stroke-dashoffset="1000" style="animation: draw 2s linear forwards;"/>
<path fill="#EEF179" opacity="1.000000" stroke="none" d=" M1001.839600,433.262573   C1001.944275,435.534271 1001.944275,437.357788 1001.944275,439.613464   C991.177612,439.613464 980.614929,439.613464 969.612183,439.613464   C969.612183,437.350494 969.612183,434.985626 969.612183,432.814392   C980.404968,432.814392 991.069946,432.814392 1001.839600,433.262573  z" stroke-dasharray="1000" stroke-dashoffset="1000" style="animation: draw 2s linear forwards;"/>
<path fill="#EEF179" opacity="1.000000" stroke="none" d=" M1051.997070,440.046265   C1046.018188,440.046326 1040.538452,440.046326 1034.619141,440.046326   C1034.619141,437.359955 1034.619141,434.994415 1034.619141,432.263489   C1045.254028,432.263489 1055.794067,432.263489 1066.668945,432.263489   C1066.668945,434.672607 1066.668945,436.930054 1066.668945,440.046234   C1061.998901,440.046234 1057.247559,440.046234 1051.997070,440.046265  z" stroke-dasharray="1000" stroke-dashoffset="1000" style="animation: draw 2s linear forwards;"/>
<path fill="#EEF179" opacity="1.000000" stroke="none" d=" M1105.144043,440.046265   C1103.041504,439.972687 1101.417114,439.899078 1099.499023,439.812134   C1099.499023,437.225800 1099.499023,434.981995 1099.499023,432.317383   C1110.156738,432.317383 1120.699219,432.317383 1131.623413,432.317383   C1131.623413,434.697418 1131.623413,437.068054 1131.623413,440.046234   C1122.842651,440.046234 1114.232422,440.046234 1105.144043,440.046265  z" stroke-dasharray="1000" stroke-dashoffset="1000" style="animation: draw 2s linear forwards;"/>
<path fill="#EFF27E" opacity="1.000000" stroke="none" d=" M573.983582,150.659348   C573.955078,147.736389 573.955078,145.262268 573.955078,142.208694   C570.387451,142.052383 567.149353,141.910522 563.468994,141.749268   C563.468994,139.097198 563.468994,136.543991 563.468994,133.544617   C569.343384,133.544617 575.363464,133.544617 581.747681,133.544617   C581.747681,139.851837 581.747681,146.043030 581.747681,153.515884   C578.781311,152.592590 576.396667,151.850388 573.983582,150.659348  z" stroke-dasharray="1000" stroke-dashoffset="1000" style="animation: draw 2s linear forwards;"/>
<path fill="#EEF17A" opacity="1.000000" stroke="none" d=" M1180.073486,420.999512   C1181.820923,421.090118 1183.110474,421.185181 1184.671021,421.300232   C1184.671021,427.442322 1184.671021,433.340790 1184.671021,439.646301   C1178.053101,439.646301 1171.517822,439.646301 1164.572754,439.646301   C1164.572754,437.280151 1164.572754,434.917053 1164.572754,431.901276   C1167.199951,431.901276 1169.652588,431.717499 1172.066772,431.943756   C1175.817261,432.295258 1176.978271,430.725128 1176.977417,427.074951   C1176.976929,424.956482 1174.991821,421.340393 1180.073486,420.999512  z" stroke-dasharray="1000" stroke-dashoffset="1000" style="animation: draw 2s linear forwards;"/>
<path fill="#EEF17A" opacity="1.000000" stroke="none" d=" M342.932495,426.164124   C342.932465,430.916290 342.932465,435.190277 342.932465,439.748535   C336.439392,439.748535 330.548157,439.748535 324.303284,439.748535   C324.303284,437.322571 324.303284,435.073547 324.303284,432.182648   C327.238251,432.021545 330.288300,431.854126 333.874634,431.657288   C334.045624,428.275177 334.209015,425.042877 334.392578,421.411530   C337.097961,421.411530 339.640869,421.411530 342.612640,421.411530   C342.717468,422.812164 342.824982,424.249054 342.932495,426.164124  z" stroke-dasharray="1000" stroke-dashoffset="1000" style="animation: draw 2s linear forwards;"/>
<path fill="#EEF17A" opacity="1.000000" stroke="none" d=" M105.107773,440.049927   C102.994675,440.049988 101.363380,440.049988 99.386520,440.049988   C99.386520,433.687378 99.386520,427.783691 99.386520,421.434021   C101.874321,421.434021 104.426018,421.434021 107.530769,421.434021   C107.699753,424.530396 107.876640,427.771637 108.085037,431.590088   C111.203392,431.773010 114.256310,431.952057 117.649055,432.151062   C117.649055,434.729858 117.649055,437.100769 117.649055,440.049896   C113.484039,440.049896 109.536797,440.049896 105.107773,440.049927  z" stroke-dasharray="1000" stroke-dashoffset="1000" style="animation: draw 2s linear forwards;"/>
<path fill="#EEF179" opacity="1.000000" stroke="none" d=" M576.155396,301.897156   C578.226807,301.865692 579.837524,301.865692 581.769043,301.865692   C581.769043,311.965576 581.769043,321.501007 581.769043,331.431366   C579.292358,331.431366 576.932434,331.431366 574.068726,331.431366   C574.068726,321.978363 574.041870,312.741455 574.138123,303.505829   C574.143738,302.974731 575.152649,302.454102 576.155396,301.897156  z" stroke-dasharray="1000" stroke-dashoffset="1000" style="animation: draw 2s linear forwards;"/>
<path fill="#EEF17A" opacity="1.000000" stroke="none" d=" M281.989868,431.901550   C286.297241,431.901459 290.106934,431.901459 294.371765,431.901459   C294.371765,434.591827 294.371765,436.951508 294.371765,439.684448   C284.793243,439.684448 275.261078,439.684448 265.378113,439.684448   C265.378113,437.319214 265.378113,435.069183 265.378113,431.901642   C270.690826,431.901642 276.091522,431.901642 281.989868,431.901550  z" stroke-dasharray="1000" stroke-dashoffset="1000" style="animation: draw 2s linear forwards;"/>
<path fill="#EEF17A" opacity="1.000000" stroke="none" d=" M209.271423,431.908112   C218.200287,431.903198 226.656799,431.903198 235.492889,431.903198   C235.492889,434.588135 235.492889,436.830383 235.492889,439.569092   C226.076889,439.569092 216.539215,439.569092 206.591202,439.569092   C206.898178,436.980469 203.569153,433.462860 209.271423,431.908112  z" stroke-dasharray="1000" stroke-dashoffset="1000" style="animation: draw 2s linear forwards;"/>
<path fill="#EEF17A" opacity="1.000000" stroke="none" d=" M163.991486,440.049957   C158.352005,440.050018 153.210754,440.050018 147.621246,440.050018   C147.621246,437.371948 147.621246,435.010651 147.621246,432.271820   C157.218369,432.271820 166.747711,432.271820 176.625122,432.271820   C176.625122,434.656525 176.625122,436.909515 176.625122,440.049896   C172.633011,440.049896 168.561371,440.049896 163.991486,440.049957  z" stroke-dasharray="1000" stroke-dashoffset="1000" style="animation: draw 2s linear forwards;"/>
<path fill="#EEF179" opacity="1.000000" stroke="none" d=" M581.941162,210.633026   C579.513855,211.509460 577.186951,211.931641 574.354004,212.445618   C574.354004,202.038956 574.354004,192.386978 574.354004,182.429062   C576.802307,182.429062 579.041382,182.429062 582.041626,182.429062   C582.041626,191.754974 582.041626,200.966873 581.941162,210.633026  z" stroke-dasharray="1000" stroke-dashoffset="1000" style="animation: draw 2s linear forwards;"/>
<path fill="#EEF17A" opacity="1.000000" stroke="none" d=" M1179.191650,361.156860   C1181.120117,361.130737 1182.601807,361.130737 1184.527832,361.130737   C1184.527832,371.057007 1184.527832,380.709015 1184.527832,390.707489   C1182.229980,390.707489 1179.988403,390.707489 1176.857300,390.707489   C1176.857300,381.878876 1176.797852,373.006256 1176.940186,364.136871   C1176.956055,363.142853 1178.115845,362.167206 1179.191650,361.156860  z" stroke-dasharray="1000" stroke-dashoffset="1000" style="animation: draw 2s linear forwards;"/>
<path fill="#EEF179" opacity="1.000000" stroke="none" d=" M730.905701,207.810669   C730.904968,199.223740 730.904968,191.113220 730.904968,182.566010   C733.592285,182.566010 735.952942,182.566010 738.683533,182.566010   C738.683533,192.140244 738.683533,201.666595 738.683533,211.748642   C735.794800,211.041870 731.281433,215.203827 730.905701,207.810669  z" stroke-dasharray="1000" stroke-dashoffset="1000" style="animation: draw 2s linear forwards;"/>
<path fill="#EEF179" opacity="1.000000" stroke="none" d=" M730.904907,371.036591   C730.904846,367.611053 730.904846,364.678070 730.904846,361.440186   C733.738831,361.440186 735.977783,361.440186 738.636230,361.440186   C738.636230,371.167847 738.636230,380.810272 738.636230,390.750061   C736.218384,390.750061 733.973083,390.750061 730.905029,390.750061   C730.905029,384.310974 730.905029,377.920074 730.904907,371.036591  z" stroke-dasharray="1000" stroke-dashoffset="1000" style="animation: draw 2s linear forwards;"/>
<path fill="#EEF179" opacity="1.000000" stroke="none" d=" M582.095093,384.887024   C582.095154,386.999573 582.095154,388.628876 582.095154,390.649963   C579.322754,390.649963 576.961975,390.649963 574.273376,390.649963   C574.273376,380.987579 574.273376,371.458374 574.273376,361.526093   C576.717346,361.526093 579.074341,361.526093 582.094971,361.526093   C582.094971,369.264221 582.094971,376.833984 582.095093,384.887024  z" stroke-dasharray="1000" stroke-dashoffset="1000" style="animation: draw 2s linear forwards;"/>
<path fill="#EEF17A" opacity="1.000000" stroke="none" d=" M1176.847778,195.009674   C1176.847656,190.588196 1176.847656,186.664536 1176.847656,182.438156   C1179.709717,182.438156 1181.947876,182.438156 1184.580566,182.438156   C1184.580566,192.163681 1184.580566,201.805420 1184.580566,211.749207   C1182.157959,211.749207 1179.918823,211.749207 1176.847900,211.749207   C1176.847900,206.289474 1176.847900,200.898499 1176.847778,195.009674  z" stroke-dasharray="1000" stroke-dashoffset="1000" style="animation: draw 2s linear forwards;"/>
<path fill="#EEF179" opacity="1.000000" stroke="none" d=" M580.718994,271.801727   C578.456360,271.907257 576.638611,271.907257 574.387573,271.907257   C574.387573,261.997772 574.387573,252.317032 574.387573,242.315369   C576.730896,242.315369 578.984985,242.315369 582.455627,242.315369   C582.024292,252.126465 581.594055,261.911346 580.718994,271.801727  z" stroke-dasharray="1000" stroke-dashoffset="1000" style="animation: draw 2s linear forwards;"/>
<path fill="#EEF179" opacity="1.000000" stroke="none" d=" M730.904907,250.063995   C730.904846,247.283737 730.904846,244.992462 730.904846,242.352585   C733.743652,242.352585 736.111633,242.352585 738.764893,242.352585   C738.764893,252.147079 738.764893,261.699432 738.764893,271.609283   C736.337708,271.609283 734.090027,271.609283 730.905029,271.609283   C730.905029,264.667511 730.905029,257.610229 730.904907,250.063995  z" stroke-dasharray="1000" stroke-dashoffset="1000" style="animation: draw 2s linear forwards;"/>
<path fill="#EEF17A" opacity="1.000000" stroke="none" d=" M1177.014648,303.325867   C1179.444336,302.420563 1181.767578,301.973236 1184.577148,301.432281   C1184.577148,311.889374 1184.577148,321.544495 1184.577148,331.515991   C1182.157837,331.515991 1179.923828,331.515991 1176.908325,331.515991   C1176.908325,322.185181 1176.908325,312.984528 1177.014648,303.325867  z" stroke-dasharray="1000" stroke-dashoffset="1000" style="animation: draw 2s linear forwards;"/>
<path fill="#EEF179" opacity="1.000000" stroke="none" d=" M730.904907,312.030396   C730.904846,308.581940 730.904846,305.627289 730.904846,302.265747   C733.687378,302.265747 736.040588,302.265747 738.723816,302.265747   C738.723816,311.944977 738.723816,321.477417 738.723816,331.418213   C736.291077,331.418213 733.932556,331.418213 730.905029,331.418213   C730.905029,325.007904 730.905029,318.766052 730.904907,312.030396  z" stroke-dasharray="1000" stroke-dashoffset="1000" style="animation: draw 2s linear forwards;"/>
<path fill="#EEF179" opacity="1.000000" stroke="none" d=" M1176.850708,253.021545   C1176.850586,249.244659 1176.850586,245.964157 1176.850586,242.344727   C1179.598877,242.344727 1181.846802,242.344727 1184.533447,242.344727   C1184.533447,251.938156 1184.533447,261.598785 1184.533447,271.614685   C1182.249512,271.614685 1180.009521,271.614685 1176.850830,271.614685   C1176.850830,265.628326 1176.850830,259.573151 1176.850708,253.021545  z" stroke-dasharray="1000" stroke-dashoffset="1000" style="animation: draw 2s linear forwards;"/>
<path fill="#000000" opacity="1.000000" stroke="none" d=" M1276.340088,123.587402   C1278.465210,123.819595 1280.553711,124.030106 1282.853271,124.261879   C1282.853271,134.011414 1282.853271,143.724258 1282.853271,153.754807   C1280.524902,153.754807 1278.166016,153.754807 1275.671753,153.754807   C1275.671753,143.829987 1275.671753,134.090378 1276.027344,123.942795   C1276.383057,123.534821 1276.303589,123.565712 1276.340088,123.587402  z" stroke-dasharray="1000" stroke-dashoffset="1000" style="animation: draw 2s linear forwards;"/>
<path fill="#FDFDFD" opacity="1.000000" stroke="none" d=" M180.932297,324.000732   C180.932297,317.854889 180.932297,312.208832 180.932297,306.200562   C203.095093,306.200562 225.089249,306.200562 247.284790,306.200562   C247.284790,320.747498 247.284790,335.154419 247.284790,349.815216   C225.269272,349.815216 203.376465,349.815216 180.932297,349.815216   C180.932297,341.351959 180.932297,332.926239 180.932297,324.000732  z" stroke-dasharray="1000" stroke-dashoffset="1000" style="animation: draw 2s linear forwards;"/>
<path fill="#FDFDFD" opacity="1.000000" stroke="none" d=" M245.986450,261.115723   C224.194077,261.152557 202.903320,261.152557 181.272614,261.152557   C181.272614,246.479538 181.272614,231.951294 181.272614,217.176010   C203.174988,217.176010 225.055054,217.176010 247.304428,217.176010   C247.304428,231.696289 247.307602,246.100159 247.270538,260.503906   C247.270050,260.696228 246.760193,260.887268 245.986450,261.115723  z" stroke-dasharray="1000" stroke-dashoffset="1000" style="animation: draw 2s linear forwards;"/>
<path fill="#FDFDFD" opacity="1.000000" stroke="none" d=" M1056.000000,350.076294   C1048.684692,350.076294 1041.869141,350.076294 1034.769775,350.076294   C1034.769775,305.743988 1034.769775,261.689819 1034.769775,217.279358   C1049.305542,217.279358 1063.837158,217.279358 1078.773926,217.279358   C1078.773926,224.301773 1078.773926,231.383423 1078.773926,238.872818   C1086.235474,238.872818 1093.311768,238.872818 1100.729004,238.872818   C1100.729004,268.643250 1100.729004,298.003601 1100.729004,327.767639   C1093.706055,327.767639 1086.623291,327.767639 1079.133545,327.767639   C1079.133545,335.227112 1079.133545,342.304413 1079.133545,350.076294   C1071.327515,350.076294 1063.913696,350.076294 1056.000000,350.076294  z" stroke-dasharray="1000" stroke-dashoffset="1000" style="animation: draw 2s linear forwards;"/>
<path fill="#2C2A24" opacity="1.000000" stroke="none" d=" M171.854004,110.349739   C171.865356,122.268600 171.865356,133.719131 171.865356,145.562042   C164.292114,145.562042 156.947067,145.562042 149.320282,145.562042   C149.320282,133.275162 149.320282,121.047813 149.320282,108.139839   C156.320068,108.139839 163.383469,108.106354 170.444672,108.214638   C170.919083,108.221916 171.377045,109.300880 171.854004,110.349739  M156.868713,133.408264   C156.868713,134.963577 156.868713,136.518906 156.868713,137.864182   C159.760681,137.864182 161.813797,137.864182 163.890335,137.864182   C163.890335,130.437103 163.890335,123.392464 163.890335,116.237144   C161.463654,116.237144 159.289261,116.237144 156.868652,116.237144   C156.868652,121.876358 156.868652,127.150581 156.868713,133.408264  z" stroke-dasharray="1000" stroke-dashoffset="1000" style="animation: draw 2s linear forwards;"/>
<path fill="#292623" opacity="1.000000" stroke="none" d=" M134.181488,132.038513   C134.181519,136.825943 134.181519,141.120255 134.181519,145.676392   C126.661789,145.676392 119.557640,145.676392 112.039307,145.676392   C112.039307,143.407486 112.039307,141.052872 112.039307,138.234192   C116.812469,138.234192 121.409088,138.234192 126.304901,138.234192   C126.304901,135.698746 126.304901,133.612564 126.304901,130.969620   C121.619415,130.969620 116.875053,130.969620 111.886574,130.969620   C111.886574,123.150055 111.886574,115.882019 111.886574,108.332581   C119.275192,108.332581 126.493355,108.332581 133.946594,108.332581   C133.946594,110.804329 133.946594,113.056770 133.946594,115.847229   C129.012314,115.847229 124.268013,115.847229 119.316490,115.847229   C119.316490,118.458580 119.316490,120.532837 119.316490,123.144760   C124.234047,123.144760 128.976959,123.144760 134.181473,123.144760   C134.181473,126.298790 134.181473,128.922089 134.181488,132.038513  z" stroke-dasharray="1000" stroke-dashoffset="1000" style="animation: draw 2s linear forwards;"/>
<path fill="#2C2A24" opacity="1.000000" stroke="none" d=" M252.070587,115.868683   C250.144791,115.956100 248.697464,116.043526 247.201309,116.133896   C247.201309,118.562141 247.201309,120.652657 247.201309,122.949715   C249.544983,123.071503 251.658707,123.181343 254.077133,123.307007   C254.077133,125.697655 254.077133,127.954498 254.077133,130.590134   C251.904114,130.740982 249.812210,130.886215 247.337646,131.057999   C247.337646,133.216660 247.337646,135.416962 247.337646,138.211121   C252.031067,138.211121 256.770233,138.211121 261.694672,138.211121   C261.694672,141.018188 261.694672,143.253250 261.694672,145.711700   C254.189774,145.711700 246.945923,145.711700 239.416931,145.711700   C239.416931,133.223358 239.416931,120.975784 239.416931,108.385132   C246.700470,108.385132 253.942154,108.385132 261.572021,108.385132   C261.572021,110.648880 261.572021,113.002686 261.572021,115.868690   C258.464661,115.868690 255.506851,115.868690 252.070587,115.868683  z" stroke-dasharray="1000" stroke-dashoffset="1000" style="animation: draw 2s linear forwards;"/>
<path fill="#2C2A24" opacity="1.000000" stroke="none" d=" M284.246674,136.935593   C284.246735,129.820740 284.246735,123.197304 284.246735,116.225700   C281.773041,116.004402 279.556580,115.806114 277.135284,115.589500   C277.135284,113.103455 277.135284,110.851112 277.135284,108.320648   C284.489136,108.320648 291.717102,108.320648 299.269897,108.320648   C299.269897,110.642372 299.269897,112.884674 299.269897,115.573395   C297.015503,115.742569 294.782135,115.910172 292.121643,116.109825   C292.121643,125.882645 292.121643,135.617630 292.121643,145.649734   C289.459045,145.649734 287.214111,145.649734 284.246613,145.649734   C284.246613,142.940720 284.246613,140.183868 284.246674,136.935593  z" stroke-dasharray="1000" stroke-dashoffset="1000" style="animation: draw 2s linear forwards;"/>
<path fill="#292623" opacity="1.000000" stroke="none" d=" M186.833923,110.210564   C187.839081,109.171402 188.809341,108.182693 189.826996,108.131226   C193.624146,107.939201 197.436844,108.054527 201.593674,108.054527   C201.593674,110.591156 201.593674,112.832367 201.593674,115.546913   C199.372894,115.736267 196.988831,115.939545 194.408630,116.159538   C194.408630,123.495163 194.408630,130.579163 194.408630,137.960388   C196.862198,138.143051 199.115585,138.310806 201.648209,138.499344   C201.648209,140.920273 201.648209,143.150940 201.648209,145.666077   C196.815399,145.666077 192.087250,145.666077 186.820755,145.666077   C186.820755,133.888977 186.820755,122.290131 186.833923,110.210564  z" stroke-dasharray="1000" stroke-dashoffset="1000" style="animation: draw 2s linear forwards;"/>
<path fill="#221F20" opacity="1.000000" stroke="none" d=" M216.837433,137.940109   C216.837418,127.837692 216.837418,118.225830 216.837418,108.345909   C219.328674,108.345909 221.412918,108.345909 223.894684,108.345909   C223.894684,120.675758 223.894684,133.022812 223.894684,145.650726   C221.752045,145.650726 219.665955,145.650726 216.837448,145.650726   C216.837448,143.268265 216.837448,140.849457 216.837433,137.940109  z" stroke-dasharray="1000" stroke-dashoffset="1000" style="animation: draw 2s linear forwards;"/>
<path fill="#252223" opacity="1.000000" stroke="none" d=" M329.571838,131.077789   C329.571838,123.617897 329.571838,116.158005 329.571838,108.383118   C332.051666,108.383118 334.263153,108.383118 336.746765,108.383118   C336.746765,115.693909 336.746765,122.944275 336.746765,130.872620   C334.607910,130.872620 332.509521,130.872620 329.961304,130.957428   C329.511414,131.042252 329.571838,131.077789 329.571838,131.077789  z" stroke-dasharray="1000" stroke-dashoffset="1000" style="animation: draw 2s linear forwards;"/>
<path fill="#252223" opacity="1.000000" stroke="none" d=" M321.979218,130.990143   C319.516052,130.990143 317.052917,130.990143 314.294434,130.990143   C314.294434,123.257263 314.294434,116.009857 314.294434,108.411423   C316.615692,108.411423 318.998840,108.411423 321.986450,108.411423   C321.986450,115.620300 321.986450,122.884842 321.957458,130.593750   C321.928467,131.038101 321.979218,130.990143 321.979218,130.990143  z" stroke-dasharray="1000" stroke-dashoffset="1000" style="animation: draw 2s linear forwards;"/>
<path fill="#221F20" opacity="1.000000" stroke="none" d=" M329.091553,130.979233   C329.571838,131.077789 329.511414,131.042252 329.485840,131.021454   C329.460236,135.759277 329.460236,140.517883 329.460236,145.599579   C326.973267,145.599579 324.773682,145.599579 322.000305,145.599579   C322.000305,141.052475 322.000305,136.485641 321.989746,131.454483   C321.979218,130.990143 321.928467,131.038101 321.903931,131.065506   C324.123322,131.022171 326.367310,130.951416 329.091553,130.979233  z" stroke-dasharray="1000" stroke-dashoffset="1000" style="animation: draw 2s linear forwards;"/>
<path fill="#EDF077" opacity="1.000000" stroke="none" d=" M156.868683,132.916534   C156.868652,127.150581 156.868652,121.876358 156.868652,116.237144   C159.289261,116.237144 161.463654,116.237144 163.890335,116.237144   C163.890335,123.392464 163.890335,130.437103 163.890335,137.864182   C161.813797,137.864182 159.760681,137.864182 156.868713,137.864182   C156.868713,136.518906 156.868713,134.963577 156.868683,132.916534  z" stroke-dasharray="1000" stroke-dashoffset="1000" style="animation: draw 2s linear forwards;"/>
<style>
@keyframes draw {
    to {
        stroke-dashoffset: 0;
    }
}
</style></svg>