<svg width="187" height="187" viewBox="0 0 187 187" fill="none" xmlns="http://www.w3.org/2000/svg">
<path d="M102.5 26L92 30L99 45L140 24.5L128.5 9L102.5 22.5V26Z" fill="black"/>
<path d="M143 27.5L100 48.5L106.5 66L154.5 48.5L143 27.5Z" fill="black"/>
<path d="M97.5 85.5V78L126.5 67L139.5 95.5L115 109.5L97.5 85.5Z" fill="black"/>
<path d="M107 157L101 158L87.5 134L106 122L107 157Z" fill="black"/>
<path d="M96.5 97.5L74 112.5L86 130L108.5 115L96.5 97.5Z" fill="black"/>
<path d="M82.5 135.5L54.5 143L71 170.5L97 158.5L82.5 135.5Z" fill="black"/>
<path d="M61.5 106.5L45.5 122.5V127L52 137L76 128.5L61.5 106.5Z" fill="black"/>
<path d="M51.5 85.5L28 88.5L33.5 99L53 88.5L51.5 85.5Z" fill="black"/>
<path d="M27.5 84L25.5 78C40.8767 71.3829 48.4893 66.0462 60.5 54L77.5 75.5L27.5 84Z" fill="black"/>
<path d="M87 32L65 51L83.5 71.5L101.5 64.5L95.5 46.5L87 32Z" fill="black"/>
<path d="M42.5 118L38.5 108L57.5 97L60.5 101L42.5 118Z" fill="black"/>
<path d="M84.5 85.5L67 102L72 109L93.5 93L88.5 85.5H84.5Z" fill="black"/>
<path d="M49 143.5L22.5 155.5L47 183.5L65.5 172L49 143.5Z" fill="black"/>
<path d="M23 133L12.5 139L19 152L30 146L23 133Z" fill="black"/>
<path d="M38.5 125L26.5 132L33.5 145.5L46.5 139.5L38.5 125Z" fill="black"/>
<path d="M9 141L0.5 146.5V153L4.5 160L15 153L9 141Z" fill="black"/>
<path d="M6.5 35.5L0.5 37.5V79L17 72L6.5 35.5Z" fill="black"/>
<path d="M17.5 75.5L1 82V98L11 94.5L19 108.5L28.5 102.5L17.5 75.5Z" fill="black"/>
<path d="M12 105.5L0.5 110.5V120.5L16.5 112.5L12 105.5Z" fill="black"/>
<path d="M101 0.5H46.5L87 25.5L101 0.5Z" fill="black"/>
<path d="M8.5 29L0.5 18V1H15L27.5 16L8.5 29Z" fill="black"/>
<path d="M35.5 1L27 11L51 36L67 20L35.5 1Z" fill="black"/>
<path d="M29.5 21.5L9 36L19.5 62.5L46.5 40.5L29.5 21.5Z" fill="black"/>
<path d="M72.5 21.5L54 40L63 48.5L82.5 28.5L72.5 21.5Z" fill="black"/>
<path d="M49.5 43L21 65.5L24.5 75.5L56.5 50.5L49.5 43Z" fill="black"/>
<path d="M106 1L95.5 17L99 21L126 6.5L121 1H106Z" fill="black"/>
<path d="M179 37.5L162 1H128.5C145.679 15.6588 152.864 25.5092 162 45.5L179 37.5Z" fill="black"/>
<path d="M186 1H175L186 20V1Z" fill="black"/>
<path d="M186.5 42L171 49.5L186.5 85V42Z" fill="black"/>
<path d="M167 50L131 65.5L142.5 93L178 74L167 50Z" fill="black"/>
<path d="M179 78L116 112.5L133.5 126.5L147.5 116.5H151L186 92.5L179 78Z" fill="black"/>
<path d="M186 129.5L155 150.5L186 170.5V129.5Z" fill="black"/>
<path d="M159 116L137.5 131.5L151 148L171 134L159 116Z" fill="black"/>
<path d="M113 117L108.5 120V138.5H111.5V156.5L144 148.5L132 132L113 117Z" fill="black"/>
<path d="M185.5 177.5L165.5 167V172.5L171 186H185.5V177.5Z" fill="black"/>
<path d="M155 183.5V186H167.5L162.5 173.5L155 183.5Z" fill="black"/>
<path d="M118 186.5L106.5 162.5L143 156.5L155.5 164L159.5 171L148 186.5H118Z" fill="black"/>
<path d="M79.5 186.5L72 174.5L100.5 162L113 186.5H79.5Z" fill="black"/>
<path d="M68 175L49.5 185H74.5L68 175Z" fill="black"/>
<path d="M5.5 163.5L16.5 186H42L18 157L5.5 163.5Z" fill="black"/>
</svg>
